<svg width="388" height="74" viewBox="0 0 388 74" fill="none" xmlns="http://www.w3.org/2000/svg">
<path d="M56.1571 58.7527H26.0983L20.5131 72.5769H0L31.3789 1.42308H51.1811L82.6616 72.5769H61.7423L56.1571 58.7527ZM50.2672 43.9121L41.1277 21.1429L31.9882 43.9121H50.2672ZM142.996 35.4753C147.058 36.8984 150.24 39.1346 152.541 42.1841C154.843 45.1658 155.994 48.7912 155.994 53.0604C155.994 59.2949 153.489 64.1062 148.479 67.4945C143.47 70.8828 136.226 72.5769 126.748 72.5769H88.3619V1.42308H124.717C133.789 1.42308 140.694 3.11722 145.433 6.5055C150.172 9.82601 152.541 14.3324 152.541 20.0247C152.541 23.413 151.695 26.4625 150.003 29.1731C148.378 31.8159 146.042 33.9167 142.996 35.4753ZM108.266 15.9588V29.6813H122.076C128.846 29.6813 132.231 27.3773 132.231 22.7692C132.231 18.2289 128.846 15.9588 122.076 15.9588H108.266ZM125.123 58.0412C132.164 58.0412 135.684 55.6355 135.684 50.8242C135.684 46.0128 132.164 43.6071 125.123 43.6071H108.266V58.0412H125.123ZM202.256 74C194.741 74 187.971 72.4075 181.946 69.2225C175.988 66.0375 171.283 61.6328 167.83 56.0082C164.445 50.3837 162.753 44.0476 162.753 37C162.753 29.9524 164.445 23.6163 167.83 17.9918C171.283 12.3672 175.988 7.96246 181.946 4.77747C187.971 1.59249 194.741 0 202.256 0C209.77 0 216.507 1.59249 222.464 4.77747C228.489 7.96246 233.195 12.3672 236.58 17.9918C240.032 23.6163 241.759 29.9524 241.759 37C241.759 44.0476 240.032 50.3837 236.58 56.0082C233.195 61.6328 228.489 66.0375 222.464 69.2225C216.507 72.4075 209.77 74 202.256 74ZM202.256 57.3297C205.844 57.3297 209.093 56.4826 212.005 54.7885C214.916 53.0943 217.217 50.7225 218.91 47.6731C220.602 44.5559 221.449 40.9982 221.449 37C221.449 33.0018 220.602 29.478 218.91 26.4286C217.217 23.3114 214.916 20.9057 212.005 19.2115C209.093 17.5174 205.844 16.6703 202.256 16.6703C198.668 16.6703 195.418 17.5174 192.507 19.2115C189.596 20.9057 187.294 23.3114 185.602 26.4286C183.909 29.478 183.063 33.0018 183.063 37C183.063 40.9982 183.909 44.5559 185.602 47.6731C187.294 50.7225 189.596 53.0943 192.507 54.7885C195.418 56.4826 198.668 57.3297 202.256 57.3297ZM285.09 74C274.529 74 266.303 71.12 260.413 65.3599C254.591 59.5998 251.68 51.4341 251.68 40.8626V1.42308H271.787V40.2528C271.787 51.6374 276.289 57.3297 285.293 57.3297C294.229 57.3297 298.698 51.6374 298.698 40.2528V1.42308H318.5V40.8626C318.5 51.4341 315.555 59.5998 309.665 65.3599C303.843 71.12 295.651 74 285.09 74ZM346.161 17.3819H324.328V1.42308H388V17.3819H366.268V72.5769H346.161V17.3819Z" fill="url(#paint0_linear_130_931)" fill-opacity="0.7"/>
<defs>
<linearGradient id="paint0_linear_130_931" x1="194" y1="-101" x2="194" y2="60" gradientUnits="userSpaceOnUse">
<stop stop-color="white"/>
<stop offset="1" stop-color="white" stop-opacity="0"/>
</linearGradient>
</defs>
</svg>
