<svg width="520" height="55" viewBox="0 0 520 55" fill="none" xmlns="http://www.w3.org/2000/svg">
<path d="M29.8152 55C24.1361 55 19.0249 53.8416 14.4817 51.5247C9.99003 49.1575 6.45351 45.8837 3.8721 41.7033C1.2907 37.5229 0 32.7885 0 27.5C0 22.2115 1.2907 17.4771 3.8721 13.2967C6.45351 9.1163 9.99003 5.86768 14.4817 3.55082C19.0249 1.18361 24.1361 0 29.8152 0C34.7715 0 39.2372 0.856227 43.2126 2.56869C47.1879 4.28114 50.4921 6.74909 53.1252 9.97253L43.3674 18.5852C39.8567 14.4551 35.5976 12.3901 30.5896 12.3901C27.6468 12.3901 25.0138 13.0197 22.6905 14.2788C20.4189 15.538 18.6377 17.326 17.347 19.6429C16.108 21.9093 15.4884 24.5284 15.4884 27.5C15.4884 30.4716 16.108 33.1158 17.347 35.4327C18.6377 37.6992 20.4189 39.462 22.6905 40.7212C25.0138 41.9803 27.6468 42.6099 30.5896 42.6099C35.5976 42.6099 39.8567 40.5449 43.3674 36.4148L53.1252 45.0275C50.4921 48.2509 47.1879 50.7189 43.2126 52.4313C39.2372 54.1438 34.7715 55 29.8152 55ZM86.1645 55C80.4338 55 75.271 53.8164 70.6761 51.4492C66.1329 49.082 62.5447 45.8082 59.9117 41.6278C57.3303 37.4473 56.0396 32.7381 56.0396 27.5C56.0396 22.2619 57.3303 17.5527 59.9117 13.3723C62.5447 9.19185 66.1329 5.91804 70.6761 3.55082C75.271 1.18361 80.4338 0 86.1645 0C91.8952 0 97.0322 1.18361 101.576 3.55082C106.17 5.91804 109.759 9.19185 112.34 13.3723C114.973 17.5527 116.29 22.2619 116.29 27.5C116.29 32.7381 114.973 37.4473 112.34 41.6278C109.759 45.8082 106.17 49.082 101.576 51.4492C97.0322 53.8164 91.8952 55 86.1645 55ZM86.1645 42.6099C88.9008 42.6099 91.379 41.9803 93.599 40.7212C95.819 39.462 97.5743 37.6992 98.8651 35.4327C100.156 33.1158 100.801 30.4716 100.801 27.5C100.801 24.5284 100.156 21.9093 98.8651 19.6429C97.5743 17.326 95.819 15.538 93.599 14.2788C91.379 13.0197 88.9008 12.3901 86.1645 12.3901C83.4282 12.3901 80.9501 13.0197 78.7301 14.2788C76.5101 15.538 74.7547 17.326 73.464 19.6429C72.1733 21.9093 71.528 24.5284 71.528 27.5C71.528 30.4716 72.1733 33.1158 73.464 35.4327C74.7547 37.6992 76.5101 39.462 78.7301 40.7212C80.9501 41.9803 83.4282 42.6099 86.1645 42.6099ZM124.321 1.05769H139.654V42.081H165.52V53.9423H124.321V1.05769ZM171.587 1.05769H186.921V42.081H212.787V53.9423H171.587V1.05769ZM262.377 42.3832V53.9423H218.854V1.05769H261.37V12.6168H234.033V21.5316H258.117V32.7129H234.033V42.3832H262.377ZM297.837 55C292.158 55 287.047 53.8416 282.504 51.5247C278.012 49.1575 274.476 45.8837 271.894 41.7033C269.313 37.5229 268.022 32.7885 268.022 27.5C268.022 22.2115 269.313 17.4771 271.894 13.2967C274.476 9.1163 278.012 5.86768 282.504 3.55082C287.047 1.18361 292.158 0 297.837 0C302.794 0 307.26 0.856227 311.235 2.56869C315.21 4.28114 318.514 6.74909 321.148 9.97253L311.39 18.5852C307.879 14.4551 303.62 12.3901 298.612 12.3901C295.669 12.3901 293.036 13.0197 290.713 14.2788C288.441 15.538 286.66 17.326 285.369 19.6429C284.13 21.9093 283.511 24.5284 283.511 27.5C283.511 30.4716 284.13 33.1158 285.369 35.4327C286.66 37.6992 288.441 39.462 290.713 40.7212C293.036 41.9803 295.669 42.6099 298.612 42.6099C303.62 42.6099 307.879 40.5449 311.39 36.4148L321.148 45.0275C318.514 48.2509 315.21 50.7189 311.235 52.4313C307.26 54.1438 302.794 55 297.837 55ZM339.069 12.919H322.419V1.05769H370.976V12.919H354.403V53.9423H339.069V12.919ZM376.688 1.05769H392.022V53.9423H376.688V1.05769ZM430.266 55C424.537 55 419.374 53.8164 414.779 51.4492C410.236 49.082 406.648 45.8082 404.015 41.6278C401.434 37.4473 400.143 32.7381 400.143 27.5C400.143 22.2619 401.434 17.5527 404.015 13.3723C406.648 9.19185 410.236 5.91804 414.779 3.55082C419.374 1.18361 424.537 0 430.266 0C435.997 0 441.134 1.18361 445.677 3.55082C450.272 5.91804 453.86 9.19185 456.441 13.3723C459.075 17.5527 460.391 22.2619 460.391 27.5C460.391 32.7381 459.075 37.4473 456.441 41.6278C453.86 45.8082 450.272 49.082 445.677 51.4492C441.134 53.8164 435.997 55 430.266 55ZM430.266 42.6099C433.002 42.6099 435.48 41.9803 437.701 40.7212C439.921 39.462 441.676 37.6992 442.967 35.4327C444.257 33.1158 444.903 30.4716 444.903 27.5C444.903 24.5284 444.257 21.9093 442.967 19.6429C441.676 17.326 439.921 15.538 437.701 14.2788C435.48 13.0197 433.002 12.3901 430.266 12.3901C427.53 12.3901 425.053 13.0197 422.833 14.2788C420.613 15.538 418.858 17.326 417.567 19.6429C416.277 21.9093 415.631 24.5284 415.631 27.5C415.631 30.4716 416.277 33.1158 417.567 35.4327C418.858 37.6992 420.613 39.462 422.833 40.7212C425.053 41.9803 427.53 42.6099 430.266 42.6099ZM520 1.05769V53.9423H507.377L483.447 25.7624V53.9423H468.424V1.05769H481.047L504.976 29.2376V1.05769H520Z" fill="url(#paint0_linear_130_983)" fill-opacity="0.7"/>
<defs>
<linearGradient id="paint0_linear_130_983" x1="260" y1="-75.0676" x2="260" y2="44.5946" gradientUnits="userSpaceOnUse">
<stop stop-color="white"/>
<stop offset="1" stop-color="white" stop-opacity="0"/>
</linearGradient>
</defs>
</svg>
