<svg width="24" height="24" viewBox="0 0 24 24" fill="none" xmlns="http://www.w3.org/2000/svg">
<circle cx="12" cy="12" r="12" fill="white"/>
<path d="M16.526 6C17.229 6 17.796 6.5685 17.8295 7.2375V18L16.491 16.8635L15.756 16.1945L14.954 15.4955L15.289 16.598H8.27C7.569 16.598 7 16.0655 7 15.36V7.24C7 6.571 7.57 6.0015 8.2725 6.0015H16.5225L16.526 6ZM13.467 8.8415H13.452L13.351 8.9415C14.3875 9.2415 14.889 9.71 14.889 9.71C14.221 9.376 13.619 9.209 13.017 9.1415C12.582 9.074 12.147 9.1095 11.7795 9.1415H11.6795C11.4445 9.1415 10.9445 9.2415 10.2745 9.509C10.041 9.6105 9.907 9.677 9.907 9.677C9.907 9.677 10.408 9.176 11.512 8.9085L11.4445 8.841C11.4445 8.841 10.6085 8.809 9.706 9.476C9.706 9.476 8.8035 11.048 8.8035 12.986C8.8035 12.986 9.3035 13.856 10.675 13.889C10.675 13.889 10.875 13.6225 11.0775 13.388C10.3075 13.154 10.0075 12.686 10.0075 12.686C10.0075 12.686 10.0745 12.719 10.175 12.786H10.205C10.22 12.786 10.227 12.7935 10.235 12.801V12.804C10.243 12.812 10.25 12.819 10.265 12.819C10.43 12.887 10.595 12.954 10.73 13.019C11.0187 13.1426 11.3207 13.2325 11.63 13.287C12.095 13.3545 12.628 13.387 13.235 13.287C13.535 13.2195 13.835 13.1535 14.135 13.0195C14.33 12.9195 14.57 12.8195 14.8335 12.651C14.8335 12.651 14.5335 13.119 13.731 13.353C13.896 13.586 14.1285 13.853 14.1285 13.853C15.5005 13.823 16.0335 12.953 16.0635 12.99C16.0635 11.055 15.156 9.48 15.156 9.48C14.3385 8.873 13.5735 8.85 13.4385 8.85L13.4665 8.84L13.467 8.8415ZM13.551 11.048C13.9025 11.048 14.186 11.348 14.186 11.7155C14.186 12.0855 13.901 12.3855 13.551 12.3855C13.201 12.3855 12.916 12.0855 12.916 11.7185C12.917 11.3485 13.2025 11.0495 13.551 11.0495V11.048ZM11.2795 11.048C11.6295 11.048 11.9125 11.348 11.9125 11.7155C11.9125 12.0855 11.6275 12.3855 11.2775 12.3855C10.9275 12.3855 10.6425 12.0855 10.6425 11.7185C10.6425 11.3485 10.9275 11.0495 11.2775 11.0495L11.2795 11.048Z" fill="black"/>
</svg>
