<svg width="733" height="98" viewBox="0 0 733 98" fill="none" xmlns="http://www.w3.org/2000/svg">
<path d="M26.6657 22.4808V43.2115H68.2804V63.8077H26.6657V96.1154H0V1.88462H73.9368V22.4808H26.6657ZM162.095 75.5192V96.1154H86.4077V1.88462H160.345V22.4808H112.804V38.3654H154.688V58.2885H112.804V75.5192H162.095ZM240.056 77.8077H200.192L192.785 96.1154H165.58L207.195 1.88462H233.457L275.206 96.1154H247.463L240.056 77.8077ZM232.245 58.1539L220.124 28L208.003 58.1539H232.245ZM298.098 23.0192H269.143V1.88462H353.584V23.0192H324.764V96.1154H298.098V23.0192ZM405.572 98C391.566 98 380.657 94.1859 372.846 86.5577C365.124 78.9295 361.264 68.1154 361.264 54.1154V1.88462H387.93V53.3077C387.93 68.3846 393.9 75.9231 405.841 75.9231C417.693 75.9231 423.618 68.3846 423.618 53.3077V1.88462H449.88V54.1154C449.88 68.1154 445.975 78.9295 438.163 86.5577C430.442 94.1859 419.578 98 405.572 98ZM509.155 71.0769H494.61V96.1154H467.945V1.88462H511.041C519.57 1.88462 526.977 3.32051 533.262 6.19231C539.547 8.97437 544.395 13.0128 547.807 18.3077C551.219 23.5128 552.925 29.6603 552.925 36.75C552.925 43.5705 551.309 49.5385 548.076 54.6539C544.934 59.6795 540.4 63.6282 534.474 66.5L554.81 96.1154H526.259L509.155 71.0769ZM525.99 36.75C525.99 32.3526 524.598 28.9423 521.815 26.5192C519.031 24.0962 514.901 22.8846 509.425 22.8846H494.61V50.4808H509.425C514.901 50.4808 519.031 49.3141 521.815 46.9808C524.598 44.5577 525.99 41.1474 525.99 36.75ZM643.323 75.5192V96.1154H567.636V1.88462H641.573V22.4808H594.032V38.3654H635.916V58.2885H594.032V75.5192H643.323ZM691.251 98C683.619 98 676.212 97.0577 669.029 95.1731C661.847 93.2885 656.011 90.7756 651.521 87.6346L660.275 67.9808C664.495 70.7628 669.388 73.0064 674.955 74.7115C680.522 76.4167 685.998 77.2692 691.385 77.2692C701.621 77.2692 706.738 74.7115 706.738 69.5962C706.738 66.9039 705.257 64.9295 702.294 63.6731C699.421 62.3269 694.752 60.9359 688.288 59.5C681.195 57.9744 675.269 56.359 670.511 54.6539C665.752 52.859 661.667 50.0321 658.255 46.1731C654.843 42.3141 653.138 37.109 653.138 30.5577C653.138 24.8141 654.709 19.6539 657.851 15.0769C660.994 10.4103 665.662 6.73078 671.857 4.03847C678.142 1.34615 685.819 0 694.887 0C701.082 0 707.187 0.717949 713.203 2.15385C719.218 3.50001 724.515 5.51923 729.094 8.21154L720.879 28C711.901 23.1539 703.192 20.7308 694.752 20.7308C689.455 20.7308 685.594 21.5385 683.17 23.1539C680.746 24.6795 679.534 26.6987 679.534 29.2115C679.534 31.7244 680.97 33.609 683.843 34.8654C686.717 36.1218 691.34 37.4231 697.715 38.7692C704.898 40.2949 710.823 41.9551 715.492 43.75C720.251 45.4551 724.336 48.2372 727.748 52.0962C731.249 55.8654 733 61.0256 733 67.5769C733 73.2308 731.429 78.3462 728.286 82.9231C725.144 87.5 720.43 91.1795 714.145 93.9615C707.861 96.6538 700.229 98 691.251 98Z" fill="url(#paint0_linear_130_907)" fill-opacity="0.7"/>
<defs>
<linearGradient id="paint0_linear_130_907" x1="366.5" y1="-133.757" x2="366.5" y2="79.4595" gradientUnits="userSpaceOnUse">
<stop stop-color="white"/>
<stop offset="1" stop-color="white" stop-opacity="0"/>
</linearGradient>
</defs>
</svg>
