<svg width="472" height="71" viewBox="0 0 472 71" fill="none" xmlns="http://www.w3.org/2000/svg">
<path d="M31.2873 1.35C37.4795 1.35 42.857 2.37857 47.4198 4.43571C51.9825 6.42858 55.5023 9.32143 57.9792 13.1143C60.4561 16.8429 61.6946 21.2464 61.6946 26.325C61.6946 31.4036 60.4561 35.8071 57.9792 39.5357C55.5023 43.2643 51.9825 46.1572 47.4198 48.2143C42.857 50.2071 37.4795 51.2036 31.2873 51.2036H19.359V68.85H0V1.35H31.2873ZM30.114 36.1607C34.0901 36.1607 37.0884 35.325 39.1091 33.6536C41.1297 31.9179 42.14 29.475 42.14 26.325C42.14 23.175 41.1297 20.7321 39.1091 18.9964C37.0884 17.2607 34.0901 16.3929 30.114 16.3929H19.359V36.1607H30.114ZM101.052 50.9143H90.4925V68.85H71.1334V1.35H102.421C108.613 1.35 113.99 2.37857 118.553 4.43571C123.116 6.42858 126.636 9.32143 129.113 13.1143C131.59 16.8429 132.828 21.2464 132.828 26.325C132.828 31.2107 131.655 35.4857 129.308 39.15C127.027 42.75 123.735 45.5786 119.433 47.6357L134.197 68.85H113.469L101.052 50.9143ZM113.273 26.325C113.273 23.175 112.263 20.7321 110.243 18.9964C108.222 17.2607 105.224 16.3929 101.247 16.3929H90.4925V36.1607H101.247C105.224 36.1607 108.222 35.325 110.243 33.6536C112.263 31.9179 113.273 29.475 113.273 26.325ZM178.022 70.2C170.787 70.2 164.268 68.6893 158.467 65.6679C152.731 62.6464 148.201 58.4679 144.877 53.1321C141.618 47.7964 139.988 41.7857 139.988 35.1C139.988 28.4143 141.618 22.4036 144.877 17.0679C148.201 11.7321 152.731 7.55358 158.467 4.53214C164.268 1.51071 170.787 0 178.022 0C185.257 0 191.743 1.51071 197.479 4.53214C203.28 7.55358 207.81 11.7321 211.069 17.0679C214.393 22.4036 216.055 28.4143 216.055 35.1C216.055 41.7857 214.393 47.7964 211.069 53.1321C207.81 58.4679 203.28 62.6464 197.479 65.6679C191.743 68.6893 185.257 70.2 178.022 70.2ZM178.022 54.3857C181.477 54.3857 184.605 53.5822 187.408 51.975C190.211 50.3679 192.427 48.1179 194.057 45.225C195.686 42.2679 196.501 38.8929 196.501 35.1C196.501 31.3071 195.686 27.9643 194.057 25.0714C192.427 22.1143 190.211 19.8321 187.408 18.225C184.605 16.6179 181.477 15.8143 178.022 15.8143C174.567 15.8143 171.438 16.6179 168.636 18.225C165.833 19.8321 163.617 22.1143 161.987 25.0714C160.358 27.9643 159.543 31.3071 159.543 35.1C159.543 38.8929 160.358 42.2679 161.987 45.225C163.617 48.1179 165.833 50.3679 168.636 51.975C171.438 53.5822 174.567 54.3857 178.022 54.3857ZM239.722 70.2C234.703 70.2 230.14 69.3643 226.034 67.6929C221.927 65.9572 218.57 63.4821 215.963 60.2679L226.523 47.925C230.173 52.6179 234.116 54.9643 238.353 54.9643C241.156 54.9643 243.274 54.1286 244.708 52.4571C246.207 50.7857 246.957 48.3429 246.957 45.1286V16.1036H223.296V1.35H266.12V43.9714C266.12 52.7143 263.872 59.2714 259.374 63.6429C254.942 68.0143 248.391 70.2 239.722 70.2ZM334.135 54.0964V68.85H279.187V1.35H332.864V16.1036H298.35V27.4821H328.758V41.7536H298.35V54.0964H334.135ZM378.905 70.2C371.735 70.2 365.282 68.7214 359.546 65.7643C353.875 62.7429 349.41 58.5643 346.151 53.2286C342.892 47.8929 341.263 41.85 341.263 35.1C341.263 28.35 342.892 22.3071 346.151 16.9714C349.41 11.6357 353.875 7.48929 359.546 4.53214C365.282 1.51071 371.735 0 378.905 0C385.163 0 390.801 1.09286 395.82 3.27858C400.839 5.46429 405.01 8.61429 408.335 12.7286L396.015 23.7214C391.583 18.45 386.205 15.8143 379.883 15.8143C376.167 15.8143 372.843 16.6179 369.91 18.225C367.042 19.8321 364.793 22.1143 363.164 25.0714C361.599 27.9643 360.817 31.3071 360.817 35.1C360.817 38.8929 361.599 42.2679 363.164 45.225C364.793 48.1179 367.042 50.3679 369.91 51.975C372.843 53.5822 376.167 54.3857 379.883 54.3857C386.205 54.3857 391.583 51.75 396.015 46.4786L408.335 57.4714C405.01 61.5857 400.839 64.7357 395.82 66.9214C390.801 69.1072 385.163 70.2 378.905 70.2ZM430.961 16.4893H409.94V1.35H471.244V16.4893H450.32V68.85H430.961V16.4893Z" fill="url(#paint0_linear_41_344)" fill-opacity="0.7"/>
<defs>
<linearGradient id="paint0_linear_41_344" x1="235.622" y1="-95.8135" x2="235.622" y2="56.9189" gradientUnits="userSpaceOnUse">
<stop stop-color="white"/>
<stop offset="1" stop-color="white" stop-opacity="0"/>
</linearGradient>
</defs>
</svg>
