<svg width="24" height="24" viewBox="0 0 24 24" fill="none" xmlns="http://www.w3.org/2000/svg">
<circle cx="12" cy="12" r="12" fill="white"/>
<path d="M19.0017 11.6542C19.0017 10.66 18.2207 9.87896 17.2265 9.87896C16.8005 9.87896 16.3744 10.021 16.0904 10.305C15.0253 9.66593 13.7471 9.23988 12.2559 9.16887L13.037 6.32853L15.4513 7.03862C15.4513 7.22512 15.4881 7.40979 15.5594 7.58209C15.6308 7.7544 15.7354 7.91095 15.8673 8.04283C15.9992 8.1747 16.1557 8.27931 16.328 8.35068C16.5003 8.42205 16.685 8.45879 16.8715 8.45879C17.058 8.45879 17.2427 8.42205 17.415 8.35068C17.5873 8.27931 17.7438 8.1747 17.8757 8.04283C18.0076 7.91095 18.1122 7.7544 18.1836 7.58209C18.2549 7.40979 18.2917 7.22512 18.2917 7.03862C18.2917 6.66196 18.142 6.30074 17.8757 6.03441C17.6094 5.76807 17.2481 5.61845 16.8715 5.61845C16.3744 5.61845 15.8774 5.90248 15.6644 6.32853L12.824 5.61845C12.611 5.54744 12.469 5.68946 12.398 5.90248L11.5459 9.16887C10.1257 9.23988 8.77652 9.66593 7.7114 10.305C7.42736 10.021 7.00131 9.87896 6.57526 9.87896C5.58114 9.87896 4.80005 10.66 4.80005 11.6542C4.80005 12.2932 5.08408 12.7903 5.58114 13.1453L5.51013 13.7844C5.51013 16.3407 8.35047 18.4 11.9009 18.4C15.4513 18.4 18.2917 16.3407 18.2917 13.7844L18.2207 13.1453C18.7177 12.7903 19.0017 12.2932 19.0017 11.6542ZM9.77064 11.8672C10.2677 11.8672 10.6227 12.2932 10.6227 12.7193C10.6227 13.1453 10.2677 13.5714 9.77064 13.5714C9.27358 13.5714 8.91854 13.2164 8.91854 12.7193C8.91854 12.2222 9.27358 11.8672 9.77064 11.8672ZM14.5992 15.7017C13.3211 16.4827 10.4807 16.4827 9.20258 15.7017C9.06056 15.5596 8.98955 15.3466 9.13157 15.2046C9.27358 15.0626 9.48661 14.9916 9.62863 15.1336C10.4807 15.7727 13.3211 15.7727 14.1732 15.1336C14.3152 14.9916 14.5282 15.0626 14.6702 15.2046C14.8122 15.3466 14.7412 15.5596 14.5992 15.7017ZM14.0312 13.5714C13.5341 13.5714 13.1791 13.1453 13.1791 12.7193C13.1791 12.2222 13.6051 11.8672 14.0312 11.8672C14.5282 11.8672 14.8833 12.2932 14.8833 12.7193C14.8833 13.2164 14.5282 13.5714 14.0312 13.5714Z" fill="black"/>
</svg>
