<svg width="24" height="24" viewBox="0 0 24 24" fill="none" xmlns="http://www.w3.org/2000/svg">
<circle cx="12" cy="12" r="12" fill="white"/>
<path d="M19.6 7.72583C19.0749 7.95475 18.519 8.10477 17.9501 8.17103C18.5473 7.82089 18.9963 7.26485 19.2129 6.60723C18.6585 6.93063 18.0439 7.16653 17.3894 7.29323C17.1187 7.01008 16.7932 6.78489 16.4328 6.63135C16.0724 6.4778 15.6846 6.39911 15.2929 6.40003C13.7067 6.40003 12.4208 7.66563 12.4208 9.22803C12.4208 9.44923 12.446 9.66483 12.495 9.87203C11.3571 9.81801 10.243 9.52743 9.22375 9.01882C8.20448 8.5102 7.3024 7.79473 6.57507 6.91803C6.31998 7.34811 6.18554 7.83899 6.18587 8.33903C6.18587 9.32043 6.69337 10.1856 7.46407 10.6924C7.00856 10.6785 6.56274 10.5574 6.16277 10.3389V10.3739C6.16277 11.7438 7.15257 12.8869 8.46577 13.1466C8.04272 13.2595 7.59974 13.2763 7.16937 13.1956C7.53477 14.3184 8.59527 15.136 9.85247 15.1591C8.83047 15.947 7.57569 16.3729 6.28527 16.3701C6.05625 16.3699 5.82743 16.3564 5.59998 16.3295C6.91759 17.1617 8.44456 17.6023 10.003 17.6C15.2859 17.6 18.1748 13.2915 18.1748 9.55563C18.1748 9.43313 18.172 9.31063 18.1664 9.18953C18.7276 8.79119 19.2131 8.29573 19.6 7.72653V7.72583Z" fill="black"/>
</svg>
