<svg width="582" height="60" viewBox="0 0 582 60" fill="none" xmlns="http://www.w3.org/2000/svg">
<path d="M21.9491 58.0541C21.6928 57.618 21.4494 57.169 21.2188 56.7072C20.9881 56.2454 20.7831 55.7836 20.6037 55.3218C17.2979 46.5991 14.0049 37.9533 10.7248 29.3844C7.44458 20.8156 4.15159 12.1698 0.845787 3.44706C0.845787 3.31879 0.820161 3.20334 0.768908 3.10072C0.743282 2.9981 0.730469 2.89548 0.730469 2.79285C0.730469 2.07451 1.20456 1.71534 2.15273 1.71534H14.5303C15.5041 1.71534 16.1704 2.20279 16.5291 3.17768L28.2916 38.2355L39.17 3.17768C39.5288 2.20279 40.2335 1.71534 41.2842 1.71534H53.7771C54.3665 1.71534 54.7765 1.83079 55.0071 2.06168C55.2634 2.26692 55.3915 2.54913 55.3915 2.9083C55.3915 3.11354 55.3787 3.25465 55.3531 3.33161V3.44706L48.5108 23.0733L53.6617 38.197L66.1162 3.17768C66.4749 2.20279 67.1797 1.71534 68.2303 1.71534H80.3388C80.9282 1.71534 81.3382 1.83079 81.5689 2.06168C81.8251 2.26692 81.9533 2.54913 81.9533 2.9083C81.9533 3.11354 81.9405 3.25465 81.9148 3.33161V3.44706C80.1722 7.96237 78.3912 12.4649 76.5717 16.9545C74.7523 21.4442 72.92 25.9338 71.0749 30.4235C69.2554 34.9131 67.4359 39.4156 65.6164 43.9309C63.8226 48.4206 62.0672 52.9102 60.3502 57.3999C60.2477 57.6821 60.0171 58.0028 59.6583 58.362C59.2995 58.6955 58.8639 58.8622 58.3514 58.8622H58.2361H48.9337C48.3699 58.8622 47.9342 58.7596 47.6267 58.5544C47.3448 58.3235 47.1398 58.0284 47.0117 57.6693L40.9382 41.6604C40.067 43.9951 39.2085 46.2912 38.3628 48.5489C37.5171 50.7809 36.6715 53.0642 35.8258 55.3988C35.6977 55.758 35.5439 56.1428 35.3645 56.5533C35.2108 56.9381 35.0186 57.3101 34.7879 57.6693C34.5573 58.0028 34.2882 58.285 33.9807 58.5159C33.6988 58.7468 33.3657 58.8622 32.9813 58.8622H32.8659H23.5636C22.7435 58.8622 22.2054 58.5929 21.9491 58.0541ZM97.7532 3.21617C97.7788 3.06223 97.8557 2.89548 97.9838 2.71589C98.1376 2.5363 98.317 2.36954 98.522 2.21561C98.727 2.06168 98.9448 1.94623 99.1755 1.86927C99.4061 1.76665 99.6239 1.71534 99.8289 1.71534H109.669C110.105 1.71534 110.477 1.85644 110.784 2.13865C111.092 2.3952 111.322 2.6261 111.476 2.83134L112.437 5.02485L132.618 57.1305C132.823 57.6436 132.784 58.0669 132.503 58.4004C132.221 58.7083 131.734 58.8622 131.042 58.8622H120.01C119.42 58.8622 118.959 58.7596 118.626 58.5544C118.318 58.3235 118.075 57.9515 117.896 57.4384C117.383 56.13 116.883 54.8344 116.396 53.5516C115.909 52.2432 115.423 50.9348 114.936 49.6264H94.5243C94.0374 50.9348 93.5377 52.2432 93.0251 53.5516C92.5382 54.8344 92.0513 56.13 91.5644 57.4384C91.2313 58.3876 90.5778 58.8622 89.604 58.8622H78.2644C77.7775 58.8622 77.3674 58.734 77.0343 58.4774C76.7268 58.2209 76.6755 57.836 76.8805 57.3229L97.7532 3.21617ZM104.749 19.6868C104.262 20.9952 103.763 22.4062 103.25 23.9199C102.763 25.4335 102.276 26.96 101.789 28.4993C101.302 30.0386 100.803 31.5651 100.29 33.0788C99.8033 34.5668 99.3164 35.965 98.8295 37.2734H110.63L104.749 19.6868ZM140.2 3.40858C140.2 2.94679 140.341 2.54913 140.623 2.21561C140.93 1.8821 141.353 1.71534 141.891 1.71534H153.27C153.654 1.71534 154.051 1.86927 154.461 2.17713C154.897 2.48499 155.115 2.89548 155.115 3.40858V24.3817C157.908 20.79 160.65 17.2495 163.341 13.7604C166.031 10.2713 168.761 6.73092 171.528 3.1392C171.81 2.70306 172.169 2.35672 172.605 2.10016C173.066 1.81796 173.514 1.67685 173.95 1.67685H188.557C189.172 1.67685 189.48 1.86927 189.48 2.2541C189.48 2.51065 189.339 2.81851 189.057 3.17768L170.952 27.0755L190.979 57.246C191.261 57.6821 191.402 58.0284 191.402 58.285C191.402 58.6698 191.12 58.8622 190.556 58.8622H176.026C175.59 58.8622 175.154 58.734 174.719 58.4774C174.309 58.2209 173.963 57.8745 173.681 57.4384C172.323 55.5912 171.08 53.821 169.952 52.1278C168.85 50.4345 167.774 48.7541 166.723 47.0865C165.673 45.3933 164.609 43.6872 163.533 41.9683C162.457 40.2494 161.278 38.4407 159.996 36.5422L155.115 42.1607V57.169C155.115 58.2978 154.5 58.8622 153.27 58.8622H141.93C140.777 58.8622 140.2 58.2978 140.2 57.169V3.40858ZM216.902 3.21617C216.927 3.06223 217.004 2.89548 217.132 2.71589C217.286 2.5363 217.466 2.36954 217.671 2.21561C217.876 2.06168 218.093 1.94623 218.324 1.86927C218.555 1.76665 218.772 1.71534 218.977 1.71534H228.818C229.254 1.71534 229.625 1.85644 229.933 2.13865C230.24 2.3952 230.471 2.6261 230.625 2.83134L231.586 5.02485L251.766 57.1305C251.971 57.6436 251.933 58.0669 251.651 58.4004C251.369 58.7083 250.882 58.8622 250.19 58.8622H239.158C238.569 58.8622 238.108 58.7596 237.774 58.5544C237.467 58.3235 237.223 57.9515 237.044 57.4384C236.532 56.13 236.032 54.8344 235.545 53.5516C235.058 52.2432 234.571 50.9348 234.084 49.6264H213.673C213.185 50.9348 212.685 52.2432 212.173 53.5516C211.686 54.8344 211.199 56.13 210.712 57.4384C210.379 58.3876 209.725 58.8622 208.751 58.8622H197.412C196.925 58.8622 196.515 58.734 196.182 58.4774C195.874 58.2209 195.823 57.836 196.028 57.3229L216.902 3.21617ZM223.898 19.6868C223.411 20.9952 222.911 22.4062 222.399 23.9199C221.912 25.4335 221.425 26.96 220.938 28.4993C220.451 30.0386 219.951 31.5651 219.439 33.0788C218.952 34.5668 218.465 35.965 217.978 37.2734H229.779L223.898 19.6868ZM264.061 40.429C264.496 40.7882 265.047 41.2756 265.714 41.8913C266.405 42.4814 267.187 43.0715 268.058 43.6615C269.365 44.5338 270.659 45.2137 271.941 45.7011C273.222 46.1886 274.568 46.4323 275.977 46.4323C277.284 46.4323 278.373 46.2912 279.244 46.009C280.141 45.7011 280.846 45.3035 281.359 44.816C281.871 44.3286 282.23 43.7642 282.435 43.1228C282.665 42.4814 282.781 41.8015 282.781 41.0832C282.781 40.2879 282.473 39.5824 281.858 38.9667C281.269 38.3253 280.538 37.7609 279.667 37.2734C278.796 36.786 277.886 36.3755 276.938 36.042C275.99 35.6828 275.17 35.3878 274.478 35.1569C271.403 34.0793 268.712 32.9249 266.405 31.6934C264.099 30.4363 262.177 29.0509 260.64 27.5373C259.102 25.998 257.949 24.3175 257.18 22.496C256.411 20.6489 256.027 18.5964 256.027 16.3388C256.027 13.9529 256.501 11.785 257.449 9.8352C258.423 7.88541 259.794 6.21782 261.562 4.83244C263.356 3.44706 265.509 2.38237 268.02 1.63837C270.531 0.868712 273.337 0.483887 276.438 0.483887C278.77 0.483887 281 0.753266 283.127 1.29203C285.279 1.80513 287.393 2.63892 289.469 3.79341C290.341 4.30651 291.161 4.84527 291.929 5.40968C292.724 5.94844 293.416 6.47437 294.005 6.98748C294.595 7.50058 295.056 7.98803 295.389 8.44982C295.748 8.91161 295.927 9.30927 295.927 9.64279C295.927 9.9763 295.837 10.2842 295.658 10.5664C295.504 10.8486 295.261 11.1693 294.928 11.5284L289.046 17.8011C288.611 18.2373 288.175 18.4553 287.739 18.4553C287.381 18.4553 287.048 18.3527 286.74 18.1475C286.458 17.9422 286.138 17.6857 285.779 17.3778L285.433 17.07C284.921 16.6338 284.344 16.1849 283.703 15.7231C283.088 15.2613 282.422 14.8508 281.704 14.4916C280.987 14.1068 280.231 13.7989 279.437 13.568C278.642 13.3115 277.835 13.1832 277.015 13.1832C276.169 13.1832 275.375 13.2602 274.632 13.4141C273.888 13.5424 273.235 13.7604 272.671 14.0683C272.107 14.3762 271.659 14.7866 271.326 15.2998C270.993 15.7872 270.826 16.3901 270.826 17.1084C270.826 17.8268 271.005 18.4553 271.364 18.9941C271.723 19.5072 272.261 19.9946 272.979 20.4564C273.696 20.8926 274.58 21.3159 275.631 21.7264C276.707 22.1112 277.95 22.5345 279.36 22.9963C282.076 23.8942 284.575 24.8435 286.855 25.844C289.162 26.8189 291.148 27.9862 292.814 29.346C294.479 30.68 295.773 32.2835 296.696 34.1563C297.644 36.0291 298.118 38.2996 298.118 40.9678C298.118 43.7898 297.542 46.3553 296.388 48.6643C295.235 50.9476 293.646 52.8974 291.622 54.5137C289.623 56.13 287.265 57.3871 284.549 58.285C281.833 59.1573 278.911 59.5934 275.785 59.5934C272.838 59.5934 269.942 59.0675 267.097 58.0156C264.253 56.9638 261.601 55.5527 259.14 53.7825C258.115 53.0385 257.244 52.3073 256.527 51.589C255.835 50.8707 255.284 50.2934 254.874 49.8573L254.758 49.7418C254.733 49.6905 254.707 49.6649 254.681 49.6649C254.656 49.6392 254.63 49.6135 254.605 49.5879C254.579 49.5366 254.553 49.5109 254.528 49.5109C254.502 49.4853 254.476 49.4596 254.451 49.434C253.861 48.7926 253.567 48.2795 253.567 47.8947C253.567 47.4585 253.861 46.9711 254.451 46.4323L261.101 40.0826C261.639 39.6978 262.075 39.5054 262.408 39.5054C262.638 39.5054 262.882 39.5824 263.138 39.7363C263.394 39.8902 263.702 40.1211 264.061 40.429ZM306.594 3.48554C306.594 2.94679 306.735 2.52347 307.017 2.21561C307.299 1.8821 307.722 1.71534 308.285 1.71534H332.848C334.617 1.71534 336.282 1.95906 337.845 2.44651C339.409 2.93396 340.844 3.61382 342.151 4.4861C343.458 5.33272 344.636 6.35892 345.687 7.56472C346.738 8.74485 347.622 10.0276 348.339 11.413C349.083 12.7984 349.646 14.2607 350.031 15.8C350.415 17.3137 350.607 18.853 350.607 20.418C350.607 22.7269 350.185 24.9846 349.339 27.1909C348.519 29.3973 347.34 31.3599 345.802 33.0788C344.265 34.7977 342.42 36.1959 340.267 37.2734C338.115 38.3253 335.731 38.864 333.117 38.8897H321.47V57.2075C321.47 58.3106 320.881 58.8622 319.702 58.8622H308.285C307.773 58.8622 307.363 58.734 307.055 58.4774C306.748 58.1952 306.594 57.7719 306.594 57.2075V3.48554ZM335.539 20.341C335.539 19.5713 335.398 18.8017 335.116 18.032C334.86 17.2624 334.476 16.5825 333.963 15.9924C333.451 15.3767 332.823 14.8764 332.079 14.4916C331.362 14.1068 330.542 13.9144 329.619 13.9144H321.47V26.7676H329.619C330.542 26.7676 331.375 26.588 332.118 26.2289C332.861 25.844 333.476 25.3566 333.963 24.7665C334.476 24.1764 334.86 23.4966 335.116 22.7269C335.398 21.9573 335.539 21.162 335.539 20.341ZM369.532 3.21617C369.558 3.06223 369.635 2.89548 369.763 2.71589C369.917 2.5363 370.096 2.36954 370.301 2.21561C370.506 2.06168 370.724 1.94623 370.955 1.86927C371.185 1.76665 371.403 1.71534 371.608 1.71534H381.449C381.884 1.71534 382.256 1.85644 382.563 2.13865C382.871 2.3952 383.102 2.6261 383.255 2.83134L384.216 5.02485L404.397 57.1305C404.602 57.6436 404.564 58.0669 404.282 58.4004C404 58.7083 403.513 58.8622 402.821 58.8622H391.789C391.2 58.8622 390.738 58.7596 390.405 58.5544C390.098 58.3235 389.854 57.9515 389.675 57.4384C389.162 56.13 388.663 54.8344 388.176 53.5516C387.689 52.2432 387.202 50.9348 386.715 49.6264H366.304C365.817 50.9348 365.317 52.2432 364.804 53.5516C364.317 54.8344 363.831 56.13 363.344 57.4384C363.011 58.3876 362.357 58.8622 361.383 58.8622H350.044C349.557 58.8622 349.147 58.734 348.814 58.4774C348.506 58.2209 348.455 57.836 348.66 57.3229L369.532 3.21617ZM376.528 19.6868C376.042 20.9952 375.542 22.4062 375.029 23.9199C374.542 25.4335 374.055 26.96 373.569 28.4993C373.082 30.0386 372.582 31.5651 372.069 33.0788C371.583 34.5668 371.096 35.965 370.609 37.2734H382.41L376.528 19.6868ZM450.503 5.87148C450.939 6.12803 451.259 6.46154 451.464 6.87203C451.669 7.28251 451.631 7.76996 451.349 8.33437L444.853 17.5702C444.571 18.0064 444.263 18.2629 443.93 18.3399C443.623 18.3912 443.238 18.2758 442.777 17.9935C441.521 17.0443 440.137 16.3131 438.625 15.8C437.113 15.2869 435.512 15.0304 433.82 15.0304C431.719 15.0304 429.784 15.428 428.016 16.2233C426.248 17.0186 424.723 18.109 423.442 19.4944C422.16 20.8798 421.161 22.496 420.444 24.3432C419.726 26.1904 419.367 28.1658 419.367 30.2695C419.367 32.3733 419.726 34.3487 420.444 36.1959C421.161 38.0174 422.16 39.6209 423.442 41.0062C424.723 42.366 426.248 43.4435 428.016 44.2388C429.784 45.0341 431.719 45.4318 433.82 45.4318C435.512 45.4318 437.126 45.1752 438.664 44.6621C440.201 44.1233 441.598 43.3793 442.854 42.4301C443.315 42.1479 443.699 42.0324 444.007 42.0838C444.314 42.1351 444.622 42.366 444.93 42.7764L451.503 52.2432C451.785 52.8076 451.823 53.2822 451.618 53.6671C451.413 54.0519 451.093 54.3726 450.657 54.6291C448.248 56.2454 445.647 57.5025 442.854 58.4004C440.086 59.2727 437.165 59.7089 434.09 59.7089C431.373 59.7089 428.759 59.3625 426.248 58.6698C423.762 57.9771 421.43 56.9894 419.252 55.7066C417.074 54.4239 415.088 52.8974 413.294 51.1272C411.526 49.3313 410.001 47.3559 408.719 45.2009C407.438 43.0202 406.452 40.6855 405.76 38.197C405.068 35.6828 404.722 33.066 404.722 30.3465C404.722 27.6271 405.068 25.0231 405.76 22.5345C406.452 20.0203 407.438 17.6729 408.719 15.4922C410.001 13.2858 411.526 11.2847 413.294 9.48886C415.088 7.69299 417.074 6.16651 419.252 4.90941C421.43 3.62665 423.762 2.63892 426.248 1.94623C428.759 1.22789 431.373 0.868712 434.09 0.868712C437.165 0.868712 440.06 1.30485 442.777 2.17713C445.519 3.02375 448.094 4.2552 450.503 5.87148ZM461.236 3.40858C461.236 2.94679 461.377 2.54913 461.659 2.21561C461.941 1.8821 462.364 1.71534 462.928 1.71534H474.229C474.613 1.71534 475.023 1.86927 475.459 2.17713C475.895 2.48499 476.113 2.89548 476.113 3.40858V57.169C476.113 58.2978 475.485 58.8622 474.229 58.8622H462.928C461.8 58.8622 461.236 58.2978 461.236 57.169V3.40858ZM488.486 3.48554C488.486 2.94679 488.627 2.52347 488.909 2.21561C489.216 1.8821 489.639 1.71534 490.177 1.71534H528.348C528.911 1.71534 529.347 1.8821 529.655 2.21561C529.962 2.54913 530.116 2.9981 530.116 3.56251V13.1062C530.116 13.5424 529.962 13.9657 529.655 14.3762C529.347 14.761 528.899 14.9534 528.309 14.9534H503.4V24.4586H522.62C523.107 24.4586 523.504 24.5741 523.812 24.805C524.145 25.0359 524.311 25.4207 524.311 25.9595V34.2718C524.311 34.6309 524.171 34.9773 523.889 35.3108C523.607 35.6443 523.197 35.8111 522.659 35.8111H503.4V45.6242H529.232C530.385 45.6242 530.962 46.2142 530.962 47.3944V57.092C530.962 57.3486 530.859 57.5795 530.654 57.7847C530.552 58.5031 530.026 58.8622 529.078 58.8622H490.177C489.665 58.8622 489.255 58.734 488.947 58.4774C488.64 58.1952 488.486 57.7719 488.486 57.2075V3.48554ZM547.552 40.429C547.988 40.7882 548.539 41.2756 549.205 41.8913C549.897 42.4814 550.679 43.0715 551.55 43.6615C552.857 44.5338 554.151 45.2137 555.433 45.7011C556.714 46.1886 558.059 46.4323 559.469 46.4323C560.776 46.4323 561.865 46.2912 562.736 46.009C563.633 45.7011 564.338 45.3035 564.85 44.816C565.363 44.3286 565.722 43.7642 565.927 43.1228C566.157 42.4814 566.272 41.8015 566.272 41.0832C566.272 40.2879 565.965 39.5824 565.35 38.9667C564.76 38.3253 564.03 37.7609 563.159 37.2734C562.288 36.786 561.378 36.3755 560.43 36.042C559.482 35.6828 558.661 35.3878 557.97 35.1569C554.894 34.0793 552.204 32.9249 549.897 31.6934C547.591 30.4363 545.669 29.0509 544.131 27.5373C542.594 25.998 541.441 24.3175 540.672 22.496C539.903 20.6489 539.519 18.5964 539.519 16.3388C539.519 13.9529 539.993 11.785 540.941 9.8352C541.915 7.88541 543.286 6.21782 545.054 4.83244C546.848 3.44706 549 2.38237 551.512 1.63837C554.023 0.868712 556.829 0.483887 559.93 0.483887C562.262 0.483887 564.491 0.753266 566.618 1.29203C568.771 1.80513 570.885 2.63892 572.961 3.79341C573.832 4.30651 574.652 4.84527 575.421 5.40968C576.216 5.94844 576.907 6.47437 577.497 6.98748C578.086 7.50058 578.548 7.98803 578.881 8.44982C579.239 8.91161 579.419 9.30927 579.419 9.64279C579.419 9.9763 579.329 10.2842 579.15 10.5664C578.996 10.8486 578.753 11.1693 578.419 11.5284L572.538 17.8011C572.103 18.2373 571.667 18.4553 571.231 18.4553C570.872 18.4553 570.539 18.3527 570.232 18.1475C569.95 17.9422 569.63 17.6857 569.271 17.3778L568.925 17.07C568.412 16.6338 567.836 16.1849 567.195 15.7231C566.58 15.2613 565.914 14.8508 565.196 14.4916C564.479 14.1068 563.723 13.7989 562.928 13.568C562.134 13.3115 561.327 13.1832 560.507 13.1832C559.661 13.1832 558.867 13.2602 558.123 13.4141C557.38 13.5424 556.727 13.7604 556.163 14.0683C555.599 14.3762 555.151 14.7866 554.818 15.2998C554.484 15.7872 554.318 16.3901 554.318 17.1084C554.318 17.8268 554.497 18.4553 554.856 18.9941C555.215 19.5072 555.753 19.9946 556.47 20.4564C557.188 20.8926 558.072 21.3159 559.123 21.7264C560.199 22.1112 561.442 22.5345 562.851 22.9963C565.568 23.8942 568.066 24.8435 570.347 25.844C572.654 26.8189 574.639 27.9862 576.305 29.346C577.971 30.68 579.265 32.2835 580.188 34.1563C581.136 36.0291 581.61 38.2996 581.61 40.9678C581.61 43.7898 581.033 46.3553 579.88 48.6643C578.727 50.9476 577.138 52.8974 575.114 54.5137C573.115 56.13 570.757 57.3871 568.041 58.285C565.324 59.1573 562.403 59.5934 559.276 59.5934C556.329 59.5934 553.434 59.0675 550.589 58.0156C547.745 56.9638 545.092 55.5527 542.632 53.7825C541.607 53.0385 540.736 52.3073 540.018 51.589C539.326 50.8707 538.775 50.2934 538.365 49.8573L538.25 49.7418C538.224 49.6905 538.199 49.6649 538.173 49.6649C538.148 49.6392 538.122 49.6135 538.096 49.5879C538.071 49.5366 538.045 49.5109 538.019 49.5109C537.994 49.4853 537.968 49.4596 537.943 49.434C537.353 48.7926 537.058 48.2795 537.058 47.8947C537.058 47.4585 537.353 46.9711 537.943 46.4323L544.593 40.0826C545.131 39.6978 545.566 39.5054 545.9 39.5054C546.13 39.5054 546.374 39.5824 546.63 39.7363C546.886 39.8902 547.194 40.1211 547.552 40.429Z" fill="url(#paint0_linear_414_8)" fill-opacity="0.7"/>
<defs>
<linearGradient id="paint0_linear_414_8" x1="286.5" y1="-63" x2="286.5" y2="38.5" gradientUnits="userSpaceOnUse">
<stop stop-color="white"/>
<stop offset="1" stop-color="white" stop-opacity="0"/>
</linearGradient>
</defs>
</svg>
