<svg width="34" height="34" viewBox="0 0 34 34" fill="none" xmlns="http://www.w3.org/2000/svg">
<path fill-rule="evenodd" clip-rule="evenodd" d="M17 34C26.3888 34 34 26.3888 34 17C34 7.61116 26.3888 0 17 0C7.61116 0 0 7.61116 0 17C0 26.3888 7.61116 34 17 34ZM23.5377 11.4931C24.2553 11.6863 24.8212 12.2522 25.0143 12.97C25.3732 14.281 25.3594 17.0138 25.3594 17.0138C25.3594 17.0138 25.3594 19.7327 25.0145 21.0438C24.8212 21.7615 24.2554 22.3274 23.5377 22.5206C22.2266 22.8657 16.9825 22.8657 16.9825 22.8657C16.9825 22.8657 11.7519 22.8657 10.4271 22.5069C9.70937 22.3136 9.14367 21.7477 8.9504 21.03C8.60537 19.7327 8.60537 17 8.60537 17C8.60537 17 8.60537 14.281 8.9504 12.97C9.14346 12.2523 9.72317 11.6725 10.427 11.4795C11.7381 11.1343 16.9823 11.1343 16.9823 11.1343C16.9823 11.1343 22.2266 11.1343 23.5377 11.4931ZM15.3126 14.4881V19.5119L19.6735 17L15.3126 14.4881Z" fill="white"/>
</svg>
